<svg xmlns="http://www.w3.org/2000/svg" width="300" height="300" viewBox="0 0 300 300">
  <rect width="300" height="300" fill="#FFF3E0" rx="8"/>
  <!-- Box outline -->
  <rect x="60" y="40" width="180" height="200" fill="#FFE0B2" stroke="#E65100" stroke-width="3" rx="4"/>
  <!-- Break line (glass) -->
  <polyline points="110,80 130,140 150,100 170,160 190,120" fill="none" stroke="#E65100" stroke-width="4" stroke-linecap="round" stroke-linejoin="round"/>
  <!-- Hand below -->
  <g transform="translate(120,180)">
    <path d="M0,40 Q10,10 30,0 Q40,0 40,10 Q40,20 30,25 L25,25 Q30,5 40,5 Q50,5 50,15 L50,25 Q55,5 65,5 Q75,5 75,20 L75,25 Q80,10 90,10 Q100,10 100,25 L100,50 Q100,80 70,90 L30,90 Q0,80 0,40 Z" fill="#FFCC80" stroke="#E65100" stroke-width="1.5"/>
  </g>
  <text x="150" y="275" text-anchor="middle" font-family="sans-serif" font-size="16" font-weight="bold" fill="#E65100">ХРУПКОЕ</text>
</svg>